<svg xmlns="http://www.w3.org/2000/svg" xml:space="preserve"
     width="794px" height="1123px" version="1.1"
     style="shape-rendering:geometricPrecision;
     text-rendering:geometricPrecision;
     image-rendering:optimizeQuality; fill-rule:evenodd;
     clip-rule:evenodd" viewBox="0 0 79400 112300">
    <defs>
        <style type="text/css">
            <![CDATA[
                svg {fill: #fff; background-color: #fff}
                @font-face {
                    font-family: 'Arial';
                    src: url('Fonts/Arial.ttf') format('truetype');
                }
               .str0 {stroke:#000000;stroke-width:100;stroke-miterlimit:10}
               .str1 {stroke:#000000;stroke-width:200;stroke-miterlimit:10}
               .fil0 {fill:black}
               .fil1 {fill:none;fill-rule:nonzero}
               .fnt0 {font-weight:normal;font-size:1200px;font-family:'Arial';}
               .fnt1 {font-weight:bold;font-size:1300px;font-family:'Arial';}
               .fnt2 {font-weight:bold;font-size:1200px;font-family:'Arial';}
               .fnt3 {font-weight:normal;font-size:1200px;font-family:'Arial';}
               .fnt4 {font-weight:bold;font-size:1900px;font-family:'Arial';}
               .fnt5 {font-weight:normal;font-size:1300px;font-family:'Arial';}
               .fnt6 {font-weight:bold;font-size:1300px;font-family:'Arial';}
               .fnt7 {font-weight:bold;font-size:1300px;font-family:'Arial';}
               .fnt8 {font-weight:normal;font-size:1300px;font-family:'Arial';}
               .center { text-anchor: middle; }
               .right { text-anchor: end; }
               .bold { font-weight: bold; }
            ]]>
        </style>
    </defs>
    <text x="17834" y="9025" class="fil0 fnt0">Внимание! Оплата данного счета означает согласие с условиями поставки товара. Уведомление об оплате</text>
    <text x="17696" y="10258" class="fil0 fnt0"> обязательно, в противном случае не гарантируется наличие товара на складе. Товар отпускается по факту  </text>
    <text x="17706" y="11490" class="fil0 fnt0">прихода денег на р/с Поставщика, самовывозом, при наличии доверенности и документов удостоверяющих </text>
    <text x="42387" y="12722" class="fil0 fnt0">личность.</text>
    <text x="6373" y="17668" class="fil0 fnt1">Образец платежного поручения</text>
    <text x="6341" y="19317" class="fil0 fnt2">Бенефициар: </text>
    <text x="51014" y="19317" class="fil0 fnt2">ИИК</text>
    <text x="65804" y="19317" class="fil0 fnt2">Кбе</text>
    <text x="7010" y="20921" class="fil0 fnt2">_sellerName_</text>
    <text x="52343" y="22438" class="fil0 fnt2 center">_iik_</text>
    <text x="66857" y="22438" class="fil0 fnt2 center">_kbe_</text>
    <text x="6309" y="23943" class="fil0 fnt3">БИН:</text><text x="10162" y="23943" class="fil0 fnt3">_bin_</text>
    <text x="6309" y="25543" class="fil0 fnt3">Банк бенефициара:</text>
    <text x="49117" y="25559" class="fil0 fnt2">БИК</text>
    <text x="57417" y="25559" class="fil0 fnt2">Код назначения платежа</text>
    <text x="6977" y="27144" class="fil0 fnt3">_bank_</text>
    <text x="50097" y="27160" class="fil0 fnt2 center">_bik_</text>
    <text x="64619" y="27160" class="fil0 fnt2 center">_knp_</text>
    <text x="6301" y="32522" class="fil0 fnt4">_title_</text>
    <line class="fil1 str1" x1="6037.2" y1="34318.6" x2="73086.5" y2="34318.6"/>
    <text x="6341" y="36475" class="fil0 fnt5">Поставщик:</text>
    <text x="15855" y="36491" class="fil0 fnt6">_seller_</text>
    <text x="6341" y="40701" class="fil0 fnt5">Покупатель:</text>
    <text x="15859" y="40693" class="fil0 fnt6">_customer_</text>
    <text x="15859" y="44948" class="fil0 fnt7">_contract_</text>
    <text x="6341" y="44926" class="fil0 fnt8">Договор:</text>
    <text x="7414" y="47632" class="fil0 fnt6">№</text>
    <text x="20651" y="47632" class="fil0 fnt6">Наименование</text>
    <text x="41651" y="47632" class="fil0 fnt6">Кол-во</text>
    <text x="48373" y="47632" class="fil0 fnt6">Ед.</text>
    <text x="55144" y="47632" class="fil0 fnt6">Цена</text>
    <text x="64955" y="47632" class="fil0 fnt6">Сумма</text>
    <!-- itemsList -->
    <text x="8300" y="49100" class="fil0 fnt0 center">_num_</text>
    <text x="11000" y="49100" class="fil0 fnt0">_name_</text>
    <text x="44000" y="49100" class="fil0 fnt0 center">_val_</text>
    <text x="49400" y="49100" class="fil0 fnt0 center">_unit_</text>
    <text x="56800" y="49100" class="fil0 fnt0 center">_price_</text>
    <text x="67100" y="49100" class="fil0 fnt0 center">_sum_</text>
    <!-- itemsList -->
    <g transform="matrix(1 0 0 1 0 0)" id="bottom">
        <line class="fil1 str1" x1="6037.2" y1="62521.2" x2="72660.8" y2="62521.2"/>
        <line class="fil1 str0 stamp_line" x1="16537.2" y1="65304.9" x2="45956.3" y2="65304.9"/>
        <text x="57337" y="54194" class="fil0 fnt6">Итого:</text>
        <text x="72756" y="54194" class="fil0 fnt6 right">_amount_</text>
        <text x="49926" y="55923" class="fil0 fnt6">В том числе НДС:</text>
        <text x="72729" y="55923" class="fil0 fnt6 right">_nds_</text>
        <text x="6341.3" y="59348" class="fil0 fnt5">Всего наименований </text>
        <text x="20000" y="59348" class="fil0 fnt5">_items_</text>
        <text x="6357" y="61109" class="fil0 fnt6">Всего к оплате: </text>
        <text x="17457" y="61109" class="fil0 fnt6">_total_</text>
        <text x="6357" y="64854" class="fil0 fnt6">Исполнитель</text>
        <text x="46212" y="64918" class="fil0 fnt0">/</text>
        <text x="64212" y="64918" class="fil0 fnt0">/</text>
    </g>
    <line class="fil1 str0" x1="6086.6" y1="18133.8" x2="73111.8" y2="18133.8"/>
    <line class="fil1 str0" x1="6086.6" y1="27628.1" x2="6086.6" y2="18084.4"/>
    <line class="fil1 str0" x1="43894.2" y1="27628.1" x2="43894.2" y2="18084.4"/>
    <line class="fil1 str0" x1="60700.5" y1="24426.8" x2="60700.5" y2="18084.4"/>
    <line class="fil1 str0" x1="73135.9" y1="27628.1" x2="73135.9" y2="18084.4"/>
    <line class="fil1 str0" x1="6086.6" y1="27576.5" x2="73111.8" y2="27576.5"/>
    <line class="fil1 str0" x1="56506.9" y1="27628.1" x2="56506.9" y2="24426.8"/>
    <line class="fil1 str1 horizontal_line" x1="6037.2" y1="46387.1" x2="72562.3" y2="46387.1"/>
    <line class="fil1 str0 horizontal_line" x1="6137.3" y1="48065.1" x2="72562.3" y2="48065.1"/>
    <line class="fil1 str1 horizontal_line" x1="6037.2" y1="49656.3" x2="72660.8" y2="49656.3"/>
    <line class="fil1 str1 vertical_line" x1="6137.3" y1="49656.3" x2="6137.3" y2="46287.1"/>
    <line class="fil1 str0 vertical_line" x1="10281.5" y1="49656.3" x2="10281.5" y2="46287.1"/>
    <line class="fil1 str0 vertical_line" x1="40755.6" y1="49616.3" x2="40755.6" y2="46287.1"/>
    <line class="fil1 str0 vertical_line" x1="47063.4" y1="49616.3" x2="47063.4" y2="46287.1"/>
    <line class="fil1 str0 vertical_line" x1="51865.2" y1="49616.3" x2="51865.2" y2="46287.1"/>
    <line class="fil1 str0 vertical_line" x1="61771.6" y1="49616.3" x2="61771.6" y2="46287.1"/>
    <line class="fil1 str1 vertical_line" x1="72562.3" y1="49656.3" x2="72562.3" y2="46287.1"/>
    <line class="fil1 str0" x1="6086.6" y1="24426.8" x2="73111.8" y2="24426.8"/>
</svg>