<?xml version="1.0" encoding="utf-8"?>
<svg height="1123px" style="shape-rendering:geometricPrecision; text-rendering:geometricPrecision; image-rendering:optimizeQuality; fill-rule:evenodd; clip-rule:evenodd" version="1.1" viewBox="0 0 79400 112294.3" width="794px" xml:space="preserve" xmlns="http://www.w3.org/2000/svg">
<defs>
<style type="text/css">
   
    .str0 {stroke:#323332;stroke-width:100;stroke-miterlimit:10}
    .str1 {stroke:#323332;stroke-width:200.1;stroke-miterlimit:10}
    .fil1 {fill:none;fill-rule:nonzero}
    .fil0 {fill:black}
    .fnt0 {font-weight:normal;font-size:1172.4px;font-family:'Arial'}
    .fnt3 {font-weight:normal;font-size:1200.5px;font-family:'Arial'}
    .fnt2 {font-weight:bold;font-size:1200.5px;font-family:'Arial'}
    .fnt5 {font-weight:normal;font-size:1312.5px;font-family:'Arial'}
    .fnt6 {font-weight:bold;font-size:1312.5px;font-family:'Arial'}
    .fnt7 {font-weight:bold;font-size:1324px;font-family:'Arial'}
    .fnt8 {font-weight:normal;font-size:1328.5px;font-family:'Arial'}
    .fnt1 {font-weight:bold;font-size:1328.5px;font-family:'Arial'}
    .fnt4 {font-weight:bold;font-size:1904.7px;font-family:'Arial'}
    .center { text-anchor: middle; }
    .right { text-anchor: end; }
    .bold { font-weight: bold; }
    .ln20 { line-height: 20px; }
   
  </style>
</defs>
<g id="invoice">
<g transform="matrix(1 0 0 1 -21866.3 -47122.1)">
<text class="fil0 fnt0" x="39700" y="56147.1"> Внимание! Оплата данного счета означает согласие с условиями поставки товара. Уведомление об оплате</text>
</g>
<g transform="matrix(1 0 0 1 -22154.4 -45889.6)">
<text class="fil0 fnt0" x="39850" y="56147.1"> обязательно, в противном случае не гарантируется наличие товара на складе. Товар отпускается по факту  </text>
</g>
<g transform="matrix(1 0 0 1 -21994.4 -44657.2)">
<text class="fil0 fnt0" x="39700" y="56147.1">прихода денег на р/с Поставщика, самовывозом, при наличии доверенности и документов удостоверяющих </text>
</g>
<g transform="matrix(1 0 0 1 2686.93 -43424.7)">
<text class="fil0 fnt0" x="39700" y="56147.1">личность.</text>
</g>
<g transform="matrix(1 0 0 1 -33326.6 -38478.8)">
<text class="fil0 fnt1" x="39700" y="56147.1">Образец платежного поручения</text>
</g>
<line class="fil1 str0" x1="6086.6" x2="73111.8" y1="18133.8" y2="18133.8"/>
<g transform="matrix(1 0 0 1 -33358.6 -36830.2)">
<text class="fil0 fnt2" x="39700" y="56147.1">Бенефициар: </text>
</g>
<g transform="matrix(1 0 0 1 11314.2 -36830.2)">
<text class="fil0 fnt2" x="39700" y="56147.1">ИИК</text>
</g>
<g transform="matrix(1 0 0 1 26103.8 -36830.2)">
<text class="fil0 fnt2" x="39700" y="56147.1">Кбе</text>
</g>
<line class="fil1 str0" x1="6086.6" x2="6086.6" y1="27628.1" y2="18084.4"/>
<line class="fil1 str0" x1="43894.2" x2="43894.2" y1="27628.1" y2="18084.4"/>
<line class="fil1 str0" x1="60700.5" x2="60700.5" y1="24426.8" y2="18084.4"/>
<line class="fil1 str0" x1="73135.9" x2="73135.9" y1="27628.1" y2="18084.4"/>
<g transform="matrix(1 0 0 1 -33357.9 -35226.4)">
<text class="fil0 fnt2" x="40367.6" y="56147.1">КОЖАХМЕТОВА КУЛЯШ</text>
</g>
<g transform="matrix(1 0 0 1 11592.9 -33709)">
<text class="fil0 fnt2 center" x="40750" y="56147.1">KZ165935235977596995</text>
</g>
<g transform="matrix(1 0 0 1 25857 -33709)">
<text class="fil0 fnt2 center" x="41000" y="56147.1">18</text>
</g>
<g transform="matrix(1 0 0 1 -33390.7 -32204.5)">
<text class="fil0 fnt3" x="39700" y="56147.1">БИН:</text>
<text class="fil0 fnt3" x="43552.5" y="56147.1">227606450298</text>
</g>
<g transform="matrix(1 0 0 1 -33390.7 -30603.9)">
<text class="fil0 fnt3" x="39700" y="56147.1">Банк бенефициара:</text>
</g>
<g transform="matrix(1 0 0 1 9217.39 -30587.9)">
<text class="fil0 fnt2" x="39900" y="56147.1">БИК</text>
</g>
<g transform="matrix(1 0 0 1 17716.6 -30587.9)">
<text class="fil0 fnt2" x="39700" y="56147.1">Код назначения платежа</text>
</g>
<line class="fil1 str0" x1="6086.6" x2="73111.8" y1="27576.5" y2="27576.5"/>
<line class="fil1 str0" x1="56506.9" x2="56506.9" y1="27628.1" y2="24426.8"/>
<g transform="matrix(1 0 0 1 -33390.7 -29003.3)">
<text class="fil0 fnt3" x="40367.6" y="56147.1">АО "Kaspi Bank" г. Алматы.</text>
</g>
<g transform="matrix(1 0 0 1 9296.82 -28987.3)">
<text class="fil0 fnt2 center" x="40800" y="56147.1">CIRCLFVL</text>
</g>
<g transform="matrix(1 0 0 1 23719 -28987.3)">
<text class="fil0 fnt2 center" x="40900" y="56147.1">992</text>
</g>
<g transform="matrix(1 0 0 1 -33198.6 -23625.2)">
<text class="fil0 fnt4" x="39500" y="56147.1">СЧЕТ НА ОПЛАТУ № 590571 от 31 января 2016 </text>
</g>
<line class="fil1 str1" x1="6037.2" x2="73086.5" y1="34318.6" y2="34318.6"/>
<g transform="matrix(1 0 0 1 -33358.6 -19671.7)">
<text class="fil0 fnt5" x="39700" y="56147.1">Поставщик:</text>
</g>
<g transform="matrix(1 0 0 1 -24939.5 -19655.7)">
<text class="fil0 fnt6" x="40794.6" y="56147.1">БИН / ИНН 735032420898 КОЖАХМЕТОВА КУЛЯШ Республика Казахстан, г.Астана,</text><text class="fil0 fnt6" x="40794.6" y="57722.1">ул.Мордовская д.№86, тел:+7(695)-110/37-49</text>
</g>
<g transform="matrix(1 0 0 1 -33358.6 -15446.2)">
<text class="fil0 fnt5" x="39700" y="56147.1">Покупатель:</text>
</g>
<g transform="matrix(0.991284 0 0 1 -24589.8 -15454.1)">
<text class="fil0 fnt6" x="40804.2" y="56147.1">БИН / ИНН 942510006116 Товарищество с ограниченной ответственностью "Огуз -</text><text class="fil0 fnt6" x="40804.2" y="57722.1">2015 " 165505 Республика Казахстан, г. Нур-Султан, мкр.Айнабулак 3, д.251</text>
</g>
<g transform="matrix(0.991284 0 0 1 -24589.8 -11198.8)">
<text class="fil0 fnt7" x="40804.2" y="56147.1">0088 от 30.06.2018г.</text>
</g>
<g transform="matrix(1 0 0 1 -33358.6 -11220.6)">
<text class="fil0 fnt8" x="39700" y="56147.1">Договор:</text>
</g>
<g transform="matrix(1 0 0 1 -32286.2 -8515.54)">
<text class="fil0 fnt6" x="39700" y="56147.1">№</text>
</g>
<g transform="matrix(1 0 0 1 -19049.3 -8515.54)">
<text class="fil0 fnt6" x="39700" y="56147.1">Наименование</text>
</g>
<g transform="matrix(1 0 0 1 1950.66 -8515.54)">
<text class="fil0 fnt6" x="39700" y="56147.1">Кол-во</text>
</g>
<g transform="matrix(1 0 0 1 8673.19 -8515.54)">
<text class="fil0 fnt6" x="39700" y="56147.1">Ед.</text>
</g>
<g transform="matrix(1 0 0 1 15443.7 -8515.54)">
<text class="fil0 fnt6" x="39700" y="56147.1">Цена</text>
</g>
<g transform="matrix(1 0 0 1 25255.4 -8515.54)">
<text class="fil0 fnt6" x="39700" y="56147.1">Сумма</text>
</g>
<!-- itemsList -->
<text class="fil0 fnt0 center" x="8300" y="55564.80000000002">4</text><text class="fil0 fnt0 center" x="8300" y="52382.40000000001">3</text><text class="fil0 fnt0 center" x="8300" y="50791.200000000004">2</text><text class="fil0 fnt0 center" x="8300" y="49200.0">1</text>
<text class="fil0 fnt0" x="11000" y="56971.680000000015">1800х2000 (Ам)</text><text class="fil0 fnt0" x="11000" y="55564.80000000002">Ортопедическое основание КР Летто Медио</text><text class="fil0 fnt0" x="11000" y="53789.280000000006">ШЕСТИГРАННИКОМ DIN 912</text><text class="fil0 fnt0" x="11000" y="52382.40000000001">ВИНТ С ЦИЛИНДРИЧЕСКОЙ ГОЛОВКОЙ И ВНУТРЕННИМ</text><text class="fil0 fnt0" x="11000" y="50791.200000000004">перчатки xxl</text><text class="fil0 fnt0" x="11000" y="49200.0">Лампочка 6 вт 3000к</text>
<text class="fil0 fnt0 center" x="44000" y="55564.80000000002">35</text><text class="fil0 fnt0 center" x="44000" y="52382.40000000001">390</text><text class="fil0 fnt0 center" x="44000" y="50791.200000000004">74</text><text class="fil0 fnt0 center" x="44000" y="49200.0">196</text>
<text class="fil0 fnt0 center" x="49400" y="55564.80000000002">шт</text><text class="fil0 fnt0 center" x="49400" y="52382.40000000001">шт</text><text class="fil0 fnt0 center" x="49400" y="50791.200000000004">шт</text><text class="fil0 fnt0 center" x="49400" y="49200.0">шт</text>
<text class="fil0 fnt0 center" x="56800" y="55564.80000000002">4288.84</text><text class="fil0 fnt0 center" x="56800" y="52382.40000000001">28.71</text><text class="fil0 fnt0 center" x="56800" y="50791.200000000004">488.85</text><text class="fil0 fnt0 center" x="56800" y="49200.0">816.19</text>
<text class="fil0 fnt0 center" x="67100" y="55564.80000000002">150109.43</text><text class="fil0 fnt0 center" x="67100" y="52382.40000000001">11196.36</text><text class="fil0 fnt0 center" x="67100" y="50791.200000000004">36175.13</text><text class="fil0 fnt0 center" x="67100" y="49200.0">159974.00</text>
<!-- itemsList -->
<g transform="matrix(1 0 0 1 0 8140.320000000026)" name="bottom">
<line class="fil1 str1" x1="6037.2" x2="72660.8" y1="62521.2" y2="62521.2"/>
<line class="fil1 str0 stamp_line" x1="16537.2" x2="45956.3" y1="65304.9" y2="65304.9"/><g transform="matrix(1 0 0 1 17636.6 -1953.07)">
<text class="fil0 fnt6" x="39700" y="56147.1">Итого:</text>
</g>
<g transform="matrix(1 0 0 1 32755.9 -1953.07)">
<text class="fil0 fnt6 right" x="40000" y="56147.1">357454.91</text>
</g>
<g transform="matrix(1 0 0 1 10225.8 -224.418)">
<text class="fil0 fnt6" x="39700" y="56147.1">В том числе НДС:</text>
</g>
<g transform="matrix(1 0 0 1 32728.8 -224.418)">
<text class="fil0 fnt6 right" x="40000" y="56147.1">38298.74</text>
</g>
<text class="fil0 fnt5" x="6341.3" y="59348">Всего наименований </text>
<text class="fil0 fnt5" x="20000" y="59348.0">4, на сумму 357454.91 KZT</text>
<g transform="matrix(1 0 0 1 -33342.6 4961.54)">
<text class="fil0 fnt6" x="39700" y="56147.1">Всего к оплате: </text>
<text class="fil0 fnt6" x="50800" y="56147.1">Триста пятьдесят семь тысяч четыреста пятьдесят четыре тенге 91 тиын</text>
</g>
<g transform="matrix(1 0 0 1 -33342.6 8706.95)">
<text class="fil0 fnt6" x="39700" y="56147.1">Исполнитель</text>
</g>
<g transform="matrix(1 0 0 1 6512.38 8770.97)">
<text class="fil0 fnt0" x="39700" y="56147.1">/</text>
<text class="fil0 fnt0" x="57700" y="56147.1">/</text>
</g>
</g>
</g>
<line class="fil1 str1 horizontal_line" x1="6037.2" x2="72562.3" y1="46387.1" y2="46387.1"/>
<line class="fil1 str0 horizontal_line" x1="6137.3" x2="72562.3" y1="48065.1" y2="48065.1"/>
<line class="fil1 str1 horizontal_line" x1="6037.2" x2="72660.8" y1="57612.300000000025" y2="57612.300000000025"/>
<line class="fil1 str1 vertical_line" x1="6137.3" x2="6137.3" y1="46387.1" y2="57612.300000000025"/>
<line class="fil1 str0 vertical_line" x1="10281.5" x2="10281.5" y1="46387.1" y2="57612.300000000025"/>
<line class="fil1 str0 vertical_line" x1="40755.6" x2="40755.6" y1="46387.1" y2="57612.300000000025"/>
<line class="fil1 str0 vertical_line" x1="47063.4" x2="47063.4" y1="46387.1" y2="57612.300000000025"/>
<line class="fil1 str0 vertical_line" x1="51865.2" x2="51865.2" y1="46387.1" y2="57612.300000000025"/>
<line class="fil1 str0 vertical_line" x1="61771.6" x2="61771.6" y1="46387.1" y2="57612.300000000025"/>
<line class="fil1 str1 vertical_line" x1="72562.3" x2="72562.3" y1="46387.1" y2="57612.300000000025"/>
<line class="fil1 str0" x1="6086.6" x2="73111.8" y1="24426.8" y2="24426.8"/>
<line class="fil1 str0 horizontal_line" x1="6137.3" x2="72562.3" y1="49656.3" y2="49656.3"/><line class="fil1 str0 horizontal_line" x1="6137.3" x2="72562.3" y1="51247.50000000001" y2="51247.50000000001"/><line class="fil1 str0 horizontal_line" x1="6137.3" x2="72562.3" y1="54429.900000000016" y2="54429.900000000016"/><line class="fil1 str0 horizontal_line" x1="6137.3" x2="72562.3" y1="57612.300000000025" y2="57612.300000000025"/></svg>